<svg height="14" class="self-start" viewBox="0 0 110 12" fill="#8a8985" xmlns="http://www.w3.org/2000/svg" role="img" aria-label="Anthropic"><path d="M26.92 2.43646H30.929V11.8011H33.4879V2.43646H37.4969V0.198895H26.92V2.43646Z"></path><path d="M22.3992 8.32044L17.0254 0.198895H14.1253V11.8011H16.5989V3.67956L21.9727 11.8011H24.8728V0.198895H22.3992V8.32044Z"></path><path d="M47.7326 4.8232H42.103V0.198895H39.544V11.8011H42.103V7.06077H47.7326V11.8011H50.2916V0.198895H47.7326V4.8232Z"></path><path d="M4.75962 0.198895L0 11.8011H2.66129L3.63471 9.36464H8.61422L9.58747 11.8011H12.2488L7.48914 0.198895H4.75962ZM4.49553 7.20994L6.12438 3.1326L7.75323 7.20994H4.49553Z"></path><path d="M71.4966 0C68.0506 0 65.611 2.48619 65.611 6.01657C65.611 9.51381 68.0506 12 71.4966 12C74.9256 12 77.348 9.51381 77.348 6.01657C77.348 2.48619 74.9256 0 71.4966 0ZM71.4966 9.67956C69.4836 9.67956 68.2553 8.28729 68.2553 6.01657C68.2553 3.71271 69.4836 2.32044 71.4966 2.32044C73.4926 2.32044 74.7038 3.71271 74.7038 6.01657C74.7038 8.28729 73.4926 9.67956 71.4966 9.67956Z"></path><path d="M107.27 7.90608C106.827 9.03315 105.94 9.67956 104.729 9.67956C102.716 9.67956 101.487 8.28729 101.487 6.01657C101.487 3.71271 102.716 2.32044 104.729 2.32044C105.94 2.32044 106.827 2.96685 107.27 4.09392H109.983C109.318 1.60773 107.322 0 104.729 0C101.283 0 98.843 2.48619 98.843 6.01657C98.843 9.51381 101.283 12 104.729 12C107.339 12 109.335 10.3757 110 7.90608H107.27Z"></path><path d="M90.9615 0.198895L95.7212 11.8011H98.3313L93.5717 0.198895H90.9615Z"></path><path d="M85.5707 0.198895H79.7364V11.8011H82.2953V7.59116H85.5707C88.2832 7.59116 89.938 6.19889 89.938 3.89503C89.938 1.59116 88.2832 0.198895 85.5707 0.198895ZM85.4513 5.35359H82.2953V2.43646H85.4513C86.7137 2.43646 87.379 2.9337 87.379 3.89503C87.379 4.85635 86.7137 5.35359 85.4513 5.35359Z"></path><path d="M63.6492 3.72928C63.6492 1.54144 61.9944 0.198895 59.2819 0.198895H53.4476V11.8011H56.0065V7.25967H58.8553L61.4144 11.8011H64.2463L61.4127 6.91376C62.8349 6.38254 63.6492 5.26392 63.6492 3.72928ZM56.0065 2.43646H59.1625C60.4249 2.43646 61.0903 2.88398 61.0903 3.72928C61.0903 4.57459 60.4249 5.0221 59.1625 5.0221H56.0065V2.43646Z"></path></svg>