<svg xmlns="http://www.w3.org/2000/svg" xmlns:xlink="http://www.w3.org/1999/xlink" viewBox="0 0 222 64" fill="none"><g clip-path="url(#clip0_9244_18066)"><path d="M61.8008 46.7477L59.8687 52.8446C59.7711 53.1525 60.0757 53.4349 60.3736 53.3128L69.2704 49.6661C69.4839 49.5786 69.7144 49.541 69.9445 49.5564L158.877 55.4851C159.695 55.5397 160.41 54.9306 160.488 54.1103L164.677 10.2789C164.767 9.3437 164 8.55087 163.067 8.61277L59.7949 15.4593C58.9264 15.5168 58.2839 16.2944 58.388 17.1621L61.8614 46.1034C61.8874 46.3201 61.8667 46.5398 61.8008 46.7477Z" fill="#5E29BA"></path><path d="M83.0594 38.6096C84.1245 37.8423 84.6639 36.7965 84.6639 35.5022V35.195C84.6639 34.325 84.4012 33.5748 83.8827 32.9665C83.3704 32.3635 82.6676 31.9142 81.7938 31.6322L76.4611 29.9169C76.1133 29.8058 75.8297 29.646 75.6189 29.4421C75.4216 29.2508 75.3261 29.0629 75.3261 28.8677V28.5203C75.3261 27.3098 76.3615 26.7023 78.4883 26.6628H78.6785C80.8097 26.6628 81.9048 27.2036 82.0264 28.3158L82.0443 28.4803H84.3252L84.3168 28.2886C84.2061 25.7605 82.3089 24.4785 78.6785 24.4785H78.4428C74.8784 24.521 73.0704 25.8806 73.0704 28.5203V28.8677C73.0704 29.6034 73.3092 30.2509 73.7794 30.7922C74.2442 31.3282 74.9223 31.7352 75.7928 32.0014L81.0639 33.717C81.9686 34.0049 82.4087 34.4887 82.4087 35.195V35.5022C82.4087 36.1315 82.0945 36.6173 81.4479 36.987C80.779 37.3691 79.8325 37.5633 78.6357 37.5633C77.4393 37.5633 76.5045 37.3691 75.8565 36.9878C75.2302 36.6192 74.9261 36.1328 74.9261 35.5022V35.2772H72.6484V35.5022C72.6484 36.7965 73.1884 37.8423 74.254 38.6096C75.3041 39.3656 76.778 39.7482 78.6357 39.7482C80.522 39.7482 82.0101 39.3656 83.0594 38.6096Z" fill="white"></path><path d="M126.777 39.6992H124.48V33.1883H117.46V39.6992H115.162V24.8203H117.46V31.0239H124.48V24.8203H126.777V39.6992Z" fill="white"></path><path fill-rule="evenodd" clip-rule="evenodd" d="M149.207 34.8739C149.207 36.3461 148.749 37.5495 147.846 38.4524C146.942 39.3571 145.697 39.8154 144.148 39.8154C142.613 39.8154 141.379 39.3563 140.48 38.4516C139.585 37.5495 139.131 36.3461 139.131 34.8739V24.8519L141.344 24.8516V29.6709C142.036 28.978 142.976 28.6277 144.148 28.6277C147.505 28.6277 149.207 30.3244 149.207 33.6699V34.8739ZM144.148 30.7102C143.235 30.7102 142.531 30.9398 142.057 31.392C141.585 31.8434 141.344 32.6102 141.344 33.6699V34.8739C141.344 35.7607 141.587 36.4446 142.084 36.9647C142.572 37.4739 143.266 37.7319 144.148 37.7319C145.03 37.7319 145.728 37.4739 146.222 36.9642C146.72 36.4504 146.972 35.7473 146.972 34.8739V33.6699C146.972 32.6115 146.732 31.8447 146.26 31.3918C145.785 30.9398 145.075 30.7102 144.148 30.7102Z" fill="white"></path><path d="M136.365 38.6352C137.04 37.8615 137.382 36.5581 137.382 34.7616V28.9062H135.205V34.7616C135.205 35.8747 135.036 36.6606 134.702 37.0968C134.386 37.5125 133.815 37.724 133.006 37.728H132.905C132.095 37.724 131.524 37.5125 131.208 37.0968C130.875 36.6606 130.705 35.8747 130.705 34.7616V28.9062H128.529V34.7616C128.529 36.5581 128.871 37.862 129.545 38.6352C130.197 39.381 131.258 39.7764 132.701 39.8119L133.027 39.8177L133.217 39.8151V39.8119C134.657 39.7744 135.716 39.3789 136.365 38.6352Z" fill="white"></path><path fill-rule="evenodd" clip-rule="evenodd" d="M113.43 34.8736C113.43 36.3458 112.972 37.5492 112.069 38.4521C111.164 39.3568 109.92 39.8151 108.371 39.8151C106.836 39.8151 105.601 39.356 104.702 38.4521C103.807 37.5488 103.354 36.3445 103.354 34.8736V24.8516H105.567V29.6708C106.259 28.978 107.199 28.6274 108.371 28.6274C111.728 28.6274 113.43 30.3241 113.43 33.6696V34.8736ZM108.371 30.7098C107.457 30.7098 106.754 30.9395 106.279 31.3917C105.807 31.8431 105.567 32.6101 105.567 33.6696V34.8736C105.567 35.747 105.816 36.4506 106.307 36.9644C106.794 37.4736 107.489 37.7316 108.371 37.7316C109.265 37.7316 109.943 37.4807 110.445 36.9639C110.95 36.443 111.195 35.7596 111.195 34.8736V33.6696C111.195 32.6106 110.955 31.8436 110.482 31.3914C110.009 30.9395 109.298 30.7098 108.371 30.7098Z" fill="white"></path><path d="M100.588 38.635C101.263 37.8598 101.605 36.5568 101.605 34.7614V28.9062H99.4278V34.7614C99.4278 35.8758 99.2588 36.6617 98.9262 37.0966C98.6092 37.5123 98.0378 37.7245 97.2283 37.7277H97.1295C96.3193 37.7245 95.7476 37.5123 95.4309 37.0966C95.0972 36.6599 94.9282 35.8739 94.9282 34.7614V28.9062H92.752V34.7614C92.752 36.5574 93.0941 37.8604 93.7687 38.635C94.4188 39.3808 95.4798 39.7762 96.9244 39.8117L97.2492 39.8175L97.4395 39.8148V39.8117C98.8806 39.7741 99.9396 39.3786 100.588 38.635Z" fill="white"></path><path d="M91.0018 31.0887H88.6286L88.6299 33.6641L88.6286 33.7027V34.9072C88.6286 35.7793 88.8776 36.4825 89.3688 36.9975C89.7476 37.3916 90.2289 37.6281 90.8413 37.7214L91.0018 37.7458V39.8374L90.7944 39.8183C89.5522 39.7071 88.5325 39.2586 87.7649 38.4845C86.87 37.5824 86.416 36.379 86.416 34.9072V24.8516H88.6286L88.6327 28.9028H91.0018V31.0887Z" fill="white"></path></g><defs><clipPath id="clip0_9244_18066"><rect width="107" height="48" fill="white" transform="translate(58 8)"></rect></clipPath></defs></svg>